<svg xmlns="http://www.w3.org/2000/svg" xmlns:xlink="http://www.w3.org/1999/xlink" width="0" height="0" style="position:absolute">
	
		<symbol id="caret-down" viewBox="0 0 292.362 292.362">
			<path d="M286.935 69.377c-3.614-3.617-7.898-5.424-12.848-5.424H18.274c-4.952 0-9.233 1.807-12.85 5.424C1.807 72.998 0 77.279 0 82.228c0 4.948 1.807 9.229 5.424 12.847l127.907 127.907c3.621 3.617 7.902 5.428 12.85 5.428s9.233-1.811 12.847-5.428L286.935 95.074c3.613-3.617 5.427-7.898 5.427-12.847 0-4.948-1.814-9.229-5.427-12.85z"></path>
		</symbol>
	
		<symbol id="check-mark" viewBox="0 0 45.701 45.7">
			<path d="M20.687 38.332a5.308 5.308 0 0 1-7.505 0L1.554 26.704A5.306 5.306 0 1 1 9.059 19.2l6.928 6.927a1.344 1.344 0 0 0 1.896 0L36.642 7.368a5.308 5.308 0 0 1 7.505 7.504l-23.46 23.46z"></path>
		</symbol>
	
		<symbol id="delete" viewBox="-48 0 407 407">
			<path d="M89.2 37c0-12.133 9.468-21 21.6-21h88.802c12.128 0 21.597 8.867 21.597 21v23h16V37c0-20.953-16.644-37-37.597-37H110.8C89.848 0 73.199 16.047 73.199 37v23h16zm0 0M60.602 407H249.8c18.242 0 32.398-16.047 32.398-36V124h-254v247c0 19.953 14.156 36 32.403 36zm145.597-244.8a8 8 0 0 1 16 0v189a8 8 0 0 1-16 0zm-59 0a8 8 0 0 1 16 0v189a8 8 0 0 1-16 0zm-59 0a8 8 0 0 1 16 0v189a8 8 0 0 1-16 0zm0 0M20 108h270.398c11.047 0 20-8.953 20-20s-8.953-20-20-20H20C8.953 68 0 76.953 0 88s8.953 20 20 20zm0 0"></path>
		</symbol>
	
		<symbol id="delete (1)" viewBox="0 0 348.333 348.334">
			<path d="M336.559 68.611L231.016 174.165l105.543 105.549c15.699 15.705 15.699 41.145 0 56.85-7.844 7.844-18.128 11.769-28.407 11.769-10.296 0-20.581-3.919-28.419-11.769L174.167 231.003 68.609 336.563c-7.843 7.844-18.128 11.769-28.416 11.769-10.285 0-20.563-3.919-28.413-11.769-15.699-15.698-15.699-41.139 0-56.85l105.54-105.549L11.774 68.611c-15.699-15.699-15.699-41.145 0-56.844 15.696-15.687 41.127-15.687 56.829 0l105.563 105.554L279.721 11.767c15.705-15.687 41.139-15.687 56.832 0 15.705 15.699 15.705 41.145.006 56.844z"></path>
		</symbol>
	
		<symbol id="download-button" viewBox="0 0 459 459">
			<path d="M446.25 56.1l-35.7-43.35C405.45 5.1 395.25 0 382.5 0h-306C63.75 0 53.55 5.1 45.9 12.75L12.75 56.1C5.1 66.3 0 76.5 0 89.25V408c0 28.05 22.95 51 51 51h357c28.05 0 51-22.95 51-51V89.25c0-12.75-5.1-22.95-12.75-33.15zM229.5 369.75L89.25 229.5h89.25v-51h102v51h89.25L229.5 369.75zM53.55 51l20.4-25.5h306L402.9 51H53.55z"></path>
		</symbol>
	
		<symbol id="edit" viewBox="0 -1 381.53417 381">
			<path d="M370.59 230.965c-5.524 0-10 4.476-10 10v88.793c-.02 16.558-13.438 29.98-30 30H50c-16.563-.02-29.98-13.442-30-30V69.168c.02-16.563 13.438-29.98 30-30h88.79c5.523 0 10-4.477 10-10s-4.477-10-10-10H50c-27.602.031-49.969 22.398-50 50v260.59c.031 27.601 22.398 49.969 50 50h280.59c27.601-.031 49.969-22.399 50-50v-88.79c0-5.523-4.477-10.003-10-10.003zm0 0"></path><path d="M156.367 178.344L302.38 32.328l47.09 47.09-146.012 146.016zm0 0M132.543 249.258l52.039-14.414-37.625-37.625zm0 0M362.488 7.578c-9.77-9.746-25.586-9.746-35.355 0l-10.606 10.606 47.09 47.09 10.606-10.606c9.75-9.77 9.75-25.586 0-35.355zm0 0"></path>
		</symbol>
	
		<symbol id="support" viewBox="0 0 437.6 437.6">
			<path d="M264.6 300.4h-92C97 300.4 35.4 362 35.4 437.6h366.8c-.4-75.2-62-137.2-137.6-137.2zM235 237.6c7.2 0 14 2.4 19.2 6.8h33.2c16.4-17.2 26.4-40 26.4-65.6 0-52.8-42.8-95.2-95.2-95.2s-95.2 42.4-95.2 95.2c0 35.6 19.6 66.8 48.8 83.2 3.2-14 15.6-24.4 30-24.4H235z"></path><path d="M77.8 186.8c1.2 10 6 19.2 12.8 26 5.2 5.2 12 9.2 19.6 11.6-.4-1.6-.4-3.2-.4-4.4v-77.6c0-1.6 0-3.2.4-4.8-7.6 2-14 6-19.6 11.6l-1.6 1.6v-3.2c0-7.6.8-15.2 2-22.4 1.2-7.6 3.2-14.8 6-21.6 2.4-7.2 5.6-14 9.6-20.4 3.6-6.4 8-12.8 12.8-18.4.4-.4.8-1.2.8-1.6 3.6.4 7.2-.8 9.6-3.2 24.4-24.4 56.4-36.4 88-36.4s64 12 88 36.4c2.8 2.8 6.4 3.6 9.6 3.2.4.4.4 1.2.8 1.6 4.8 5.6 9.2 12 12.8 18.4 3.6 6.4 6.8 13.2 9.6 20.4 2.4 7.2 4.4 14.4 6 22 1.2 7.2 2 14.8 2 22.4v3.2c-.4-.8-1.2-1.2-1.6-1.6-5.2-5.2-12-9.2-19.6-11.6.4 1.6.4 3.2.4 4.8V220c0 1.6 0 3.2-.4 4.4 2-.4 4-1.2 6-2v25.2c0 2.8-.4 5.6-.8 7.6s-1.2 3.2-2 4.4c-.8.8-2 1.6-3.2 2-1.6.4-3.2.8-5.2.8h-74c-2.4-4-6.4-6.8-11.6-6.8h-32.8c-7.2 0-12.8 6-12.8 12.8.4 7.2 6 12.8 13.2 12.8H235c4.8 0 9.2-2.8 11.6-6.8h77.2c2.8 0 5.2-.8 7.6-1.6 3.2-1.2 5.6-2.8 8-5.2 2-2.4 3.6-5.2 4.8-8.8.8-3.2 1.6-7.2 1.6-11.6V214l1.2-1.2c6.8-6.8 11.6-16 12.8-26 .4-.4.8-.4.8-.8 1.2-1.2 2-3.2 2-4.8V148c0-8.4-.8-16.8-2-24.8-2.4-8.4-4.4-16.4-7.2-24.4S347 83.2 342.6 76c-4-7.2-8.8-14-14.4-20.4-.4-.8-1.2-1.2-2-1.6.8-3.6-.4-8-3.2-10.8C294.2 14.4 256.6 0 218.6 0S143 14.4 113.8 43.2c-2.8 2.8-4 7.2-3.2 10.8-.8.4-1.2.8-2 1.6C103 62 98.2 68.8 94.2 76s-7.6 14.8-10.8 22.8c-2.8 8-5.2 16-6.4 24.4-1.6 8-2 16.4-2 24.8v33.2c0 2 .8 3.6 2 4.8.4.4.8.4.8.8z"></path>
		</symbol>
	
</svg>
